<svg width="100" height="20" viewBox="0 0 100 20" fill="none" xmlns="http://www.w3.org/2000/svg">
<path d="M12.48 0.0399997L7.76 9.14V14H4.96V9.14L0.22 0.0399997H3.38L6.38 6.42L9.36 0.0399997H12.48ZM19.0148 14.18C17.9482 14.18 16.9882 13.9467 16.1348 13.48C15.2815 13 14.6082 12.3267 14.1148 11.46C13.6348 10.5933 13.3948 9.59333 13.3948 8.46C13.3948 7.32667 13.6415 6.32667 14.1348 5.46C14.6415 4.59333 15.3282 3.92667 16.1948 3.46C17.0615 2.98 18.0282 2.74 19.0948 2.74C20.1615 2.74 21.1282 2.98 21.9948 3.46C22.8615 3.92667 23.5415 4.59333 24.0348 5.46C24.5415 6.32667 24.7948 7.32667 24.7948 8.46C24.7948 9.59333 24.5348 10.5933 24.0148 11.46C23.5082 12.3267 22.8148 13 21.9348 13.48C21.0682 13.9467 20.0948 14.18 19.0148 14.18ZM19.0148 11.74C19.5215 11.74 19.9948 11.62 20.4348 11.38C20.8882 11.1267 21.2482 10.7533 21.5148 10.26C21.7815 9.76667 21.9148 9.16667 21.9148 8.46C21.9148 7.40667 21.6348 6.6 21.0748 6.04C20.5282 5.46667 19.8548 5.18 19.0548 5.18C18.2548 5.18 17.5815 5.46667 17.0348 6.04C16.5015 6.6 16.2348 7.40667 16.2348 8.46C16.2348 9.51333 16.4948 10.3267 17.0148 10.9C17.5482 11.46 18.2148 11.74 19.0148 11.74ZM37.3088 2.92V14H34.4888V12.6C34.1288 13.08 33.6554 13.46 33.0688 13.74C32.4954 14.0067 31.8688 14.14 31.1888 14.14C30.3221 14.14 29.5554 13.96 28.8888 13.6C28.2221 13.2267 27.6954 12.6867 27.3088 11.98C26.9354 11.26 26.7488 10.4067 26.7488 9.42V2.92H29.5488V9.02C29.5488 9.9 29.7688 10.58 30.2088 11.06C30.6488 11.5267 31.2488 11.76 32.0088 11.76C32.7821 11.76 33.3888 11.5267 33.8288 11.06C34.2688 10.58 34.4888 9.9 34.4888 9.02V2.92H37.3088ZM42.8714 4.64C43.2314 4.05333 43.6981 3.59333 44.2714 3.26C44.8581 2.92667 45.5247 2.76 46.2714 2.76V5.7H45.5314C44.6514 5.7 43.9847 5.90667 43.5314 6.32C43.0914 6.73333 42.8714 7.45333 42.8714 8.48V14H40.0714V2.92H42.8714V4.64ZM55.723 11.78H60.323V14H52.923V0.0399997H55.723V11.78ZM67.0227 14.18C65.956 14.18 64.996 13.9467 64.1427 13.48C63.2893 13 62.616 12.3267 62.1227 11.46C61.6427 10.5933 61.4027 9.59333 61.4027 8.46C61.4027 7.32667 61.6493 6.32667 62.1427 5.46C62.6493 4.59333 63.336 3.92667 64.2027 3.46C65.0693 2.98 66.036 2.74 67.1027 2.74C68.1693 2.74 69.136 2.98 70.0027 3.46C70.8693 3.92667 71.5493 4.59333 72.0427 5.46C72.5493 6.32667 72.8027 7.32667 72.8027 8.46C72.8027 9.59333 72.5427 10.5933 72.0227 11.46C71.516 12.3267 70.8227 13 69.9427 13.48C69.076 13.9467 68.1027 14.18 67.0227 14.18ZM67.0227 11.74C67.5293 11.74 68.0027 11.62 68.4427 11.38C68.896 11.1267 69.256 10.7533 69.5227 10.26C69.7893 9.76667 69.9227 9.16667 69.9227 8.46C69.9227 7.40667 69.6427 6.6 69.0827 6.04C68.536 5.46667 67.8627 5.18 67.0627 5.18C66.2627 5.18 65.5893 5.46667 65.0427 6.04C64.5093 6.6 64.2427 7.40667 64.2427 8.46C64.2427 9.51333 64.5027 10.3267 65.0227 10.9C65.556 11.46 66.2227 11.74 67.0227 11.74ZM79.1966 2.74C80.0232 2.74 80.7499 2.90667 81.3766 3.24C82.0032 3.56 82.4966 3.98 82.8566 4.5V2.92H85.6766V14.08C85.6766 15.1067 85.4699 16.02 85.0566 16.82C84.6432 17.6333 84.0232 18.2733 83.1966 18.74C82.3699 19.22 81.3699 19.46 80.1966 19.46C78.6232 19.46 77.3299 19.0933 76.3166 18.36C75.3166 17.6267 74.7499 16.6267 74.6166 15.36H77.3966C77.5432 15.8667 77.8566 16.2667 78.3366 16.56C78.8299 16.8667 79.4232 17.02 80.1166 17.02C80.9299 17.02 81.5899 16.7733 82.0966 16.28C82.6032 15.8 82.8566 15.0667 82.8566 14.08V12.36C82.4966 12.88 81.9966 13.3133 81.3566 13.66C80.7299 14.0067 80.0099 14.18 79.1966 14.18C78.2632 14.18 77.4099 13.94 76.6366 13.46C75.8632 12.98 75.2499 12.3067 74.7966 11.44C74.3566 10.56 74.1366 9.55333 74.1366 8.42C74.1366 7.3 74.3566 6.30667 74.7966 5.44C75.2499 4.57333 75.8566 3.90667 76.6166 3.44C77.3899 2.97333 78.2499 2.74 79.1966 2.74ZM82.8566 8.46C82.8566 7.78 82.7232 7.2 82.4566 6.72C82.1899 6.22667 81.8299 5.85333 81.3766 5.6C80.9232 5.33333 80.4366 5.2 79.9166 5.2C79.3966 5.2 78.9166 5.32667 78.4766 5.58C78.0366 5.83333 77.6766 6.20667 77.3966 6.7C77.1299 7.18 76.9966 7.75333 76.9966 8.42C76.9966 9.08667 77.1299 9.67333 77.3966 10.18C77.6766 10.6733 78.0366 11.0533 78.4766 11.32C78.9299 11.5867 79.4099 11.72 79.9166 11.72C80.4366 11.72 80.9232 11.5933 81.3766 11.34C81.8299 11.0733 82.1899 10.7 82.4566 10.22C82.7232 9.72667 82.8566 9.14 82.8566 8.46ZM93.3313 14.18C92.2646 14.18 91.3046 13.9467 90.4513 13.48C89.5979 13 88.9246 12.3267 88.4313 11.46C87.9513 10.5933 87.7113 9.59333 87.7113 8.46C87.7113 7.32667 87.9579 6.32667 88.4513 5.46C88.9579 4.59333 89.6446 3.92667 90.5113 3.46C91.3779 2.98 92.3446 2.74 93.4113 2.74C94.4779 2.74 95.4446 2.98 96.3113 3.46C97.1779 3.92667 97.8579 4.59333 98.3513 5.46C98.8579 6.32667 99.1113 7.32667 99.1113 8.46C99.1113 9.59333 98.8513 10.5933 98.3312 11.46C97.8246 12.3267 97.1313 13 96.2513 13.48C95.3846 13.9467 94.4113 14.18 93.3313 14.18ZM93.3313 11.74C93.8379 11.74 94.3113 11.62 94.7513 11.38C95.2046 11.1267 95.5646 10.7533 95.8313 10.26C96.0979 9.76667 96.2313 9.16667 96.2313 8.46C96.2313 7.40667 95.9513 6.6 95.3913 6.04C94.8446 5.46667 94.1713 5.18 93.3713 5.18C92.5713 5.18 91.8979 5.46667 91.3513 6.04C90.8179 6.6 90.5513 7.40667 90.5513 8.46C90.5513 9.51333 90.8113 10.3267 91.3313 10.9C91.8646 11.46 92.5313 11.74 93.3313 11.74Z" fill="black"/>
</svg>
